<svg xmlns="http://www.w3.org/2000/svg" viewBox="-7 -5 360 360">
  <!-- Top-Left Cube (gfp) -->
  <polygon points="86.6,0 173.2,50 86.6,100 0,50" fill="#2EF58D"/>
  <polygon points="0,50 86.6,100 86.6,200 0,150" fill="#22CC75"/>
  <polygon points="86.6,100 173.2,50 173.2,150 86.6,200" fill="#189960"/>
  <!-- Top-Right Cube (cherry) -->
  <polygon points="259.8,0 346.4,50 259.8,100 173.2,50" fill="#F52E64"/>
  <polygon points="173.2,50 259.8,100 259.8,200 173.2,150" fill="#CC2250"/>
  <polygon points="259.8,100 346.4,50 346.4,150 259.8,200" fill="#99193C"/>
  <!-- Bottom Cube (yfp) -->
  <polygon points="173.2,150 259.8,200 173.2,250 86.6,200" fill="#F5D62E"/>
  <polygon points="86.6,200 173.2,250 173.2,350 86.6,300" fill="#CCB222"/>
  <polygon points="173.2,250 259.8,200 259.8,300 173.2,350" fill="#998619"/>
</svg>
